<svg width="24" height="24" viewBox="0 0 24 24" fill="none" xmlns="http://www.w3.org/2000/svg">
<path fill-rule="evenodd" clip-rule="evenodd" d="M19.71 2.837C20.443 2.984 21.016 3.557 21.163 4.29C21.2677 4.81521 21.2526 5.35728 21.1188 5.87584C20.9849 6.3944 20.7358 6.87608 20.39 7.285L17.639 10.537L19.583 17.668C19.641 17.8806 19.6418 18.1048 19.5853 18.3178C19.5287 18.5309 19.4168 18.7252 19.261 18.881L17.959 20.183C17.8484 20.2935 17.7137 20.3769 17.5655 20.4265C17.4172 20.4761 17.2595 20.4906 17.1047 20.4689C16.9499 20.4472 16.8022 20.3898 16.6734 20.3013C16.5445 20.2129 16.4379 20.0957 16.362 19.959L13.42 14.663L10.562 17.044L10.772 18.097C10.8126 18.2989 10.8028 18.5076 10.7433 18.7048C10.6838 18.9019 10.5765 19.0813 10.431 19.227L8.767 20.89C8.6538 21.003 8.51537 21.0876 8.36311 21.1366C8.21085 21.1857 8.04911 21.1979 7.89121 21.1722C7.73332 21.1465 7.58378 21.0837 7.45492 20.9889C7.32605 20.8941 7.22154 20.7701 7.15 20.627L5.89 18.11L3.374 16.85C3.23092 16.7785 3.10688 16.6739 3.0121 16.5451C2.91731 16.4162 2.85449 16.2667 2.82881 16.1088C2.80313 15.9509 2.81532 15.7892 2.86438 15.6369C2.91344 15.4846 2.99797 15.3462 3.111 15.233L4.775 13.569C4.92059 13.4236 5.09981 13.3165 5.29675 13.257C5.4937 13.1975 5.70228 13.1875 5.904 13.228L6.957 13.438L9.338 10.581L4.042 7.638C3.90533 7.56211 3.78815 7.45553 3.69967 7.32665C3.6112 7.19777 3.55385 7.05012 3.53213 6.89531C3.51042 6.7405 3.52494 6.58276 3.57454 6.43452C3.62415 6.28627 3.70749 6.15156 3.818 6.041L5.12 4.739C5.27585 4.58315 5.47013 4.47129 5.68316 4.41474C5.89618 4.35819 6.12037 4.35897 6.333 4.417L13.463 6.361L16.716 3.61C17.1249 3.26418 17.6066 3.01507 18.1252 2.88123C18.6437 2.74739 19.1858 2.73227 19.711 2.837H19.71ZM19.218 4.782C19.0026 4.75343 18.7837 4.77015 18.5751 4.83111C18.3666 4.89207 18.1731 4.99592 18.007 5.136L14.357 8.225C14.2319 8.33074 14.083 8.40447 13.9231 8.43983C13.7631 8.4752 13.597 8.47114 13.439 8.428L6.226 6.46L6.159 6.526L11.354 9.412C11.484 9.48419 11.5964 9.58418 11.6832 9.70483C11.7701 9.82548 11.8292 9.96381 11.8564 10.11C11.8837 10.2561 11.8783 10.4064 11.8407 10.5503C11.8031 10.6941 11.7342 10.8279 11.639 10.942L8.115 15.17C7.99864 15.3097 7.84673 15.4154 7.6753 15.4759C7.50387 15.5365 7.31928 15.5496 7.141 15.514L5.904 15.267L5.496 15.675L7.053 16.454C7.26591 16.5604 7.43855 16.7331 7.545 16.946L8.325 18.503L8.732 18.095L8.485 16.858C8.44937 16.6797 8.46252 16.4951 8.52306 16.3237C8.58361 16.1523 8.68931 16.0004 8.829 15.884L13.058 12.36C13.1721 12.2648 13.3059 12.1959 13.4497 12.1583C13.5936 12.1207 13.7439 12.1153 13.89 12.1426C14.0362 12.1698 14.1745 12.2289 14.2952 12.3158C14.4158 12.4026 14.5158 12.515 14.588 12.645L17.473 17.84L17.539 17.773L15.572 10.56C15.529 10.4019 15.5251 10.2357 15.5606 10.0758C15.5962 9.91588 15.6701 9.767 15.776 9.642L18.864 5.992C19.149 5.655 19.276 5.216 19.218 4.782Z" fill="black"/>
</svg>
